<?xml version="1.0" encoding="UTF-8" standalone="no"?>
<!-- Created with Inkscape (http://www.inkscape.org/) -->

<svg
   width="150mm"
   height="150mm"
   viewBox="0 0 150 150"
   version="1.1"
   id="svg5"
   xml:space="preserve"
   sodipodi:docname="logo.svg"
   inkscape:version="1.2.1 (9c6d41e410, 2022-07-14)"
   xmlns:inkscape="http://www.inkscape.org/namespaces/inkscape"
   xmlns:sodipodi="http://sodipodi.sourceforge.net/DTD/sodipodi-0.dtd"
   xmlns:xlink="http://www.w3.org/1999/xlink"
   xmlns="http://www.w3.org/2000/svg"
   xmlns:svg="http://www.w3.org/2000/svg"><sodipodi:namedview
     id="namedview7"
     pagecolor="#ffffff"
     bordercolor="#000000"
     borderopacity="0.25"
     inkscape:showpageshadow="2"
     inkscape:pageopacity="0.0"
     inkscape:pagecheckerboard="0"
     inkscape:deskcolor="#d1d1d1"
     inkscape:document-units="mm"
     showgrid="false"
     inkscape:zoom="1.829812"
     inkscape:cx="239.36885"
     inkscape:cy="215.59592"
     inkscape:window-width="3840"
     inkscape:window-height="2081"
     inkscape:window-x="3831"
     inkscape:window-y="-9"
     inkscape:window-maximized="1"
     inkscape:current-layer="layer3" /><defs
     id="defs2"><linearGradient
       inkscape:collect="always"
       id="linearGradient2939"><stop
         style="stop-color:#ffffff;stop-opacity:1;"
         offset="0"
         id="stop2935" /><stop
         style="stop-color:#ffffff;stop-opacity:0;"
         offset="1"
         id="stop2937" /></linearGradient><linearGradient
       inkscape:collect="always"
       id="linearGradient596"><stop
         style="stop-color:#666666;stop-opacity:1"
         offset="0"
         id="stop592" /><stop
         style="stop-color:#8c8c8c;stop-opacity:1;"
         offset="0.66362447"
         id="stop602" /><stop
         style="stop-color:#999999;stop-opacity:1"
         offset="0.77139795"
         id="stop600" /><stop
         style="stop-color:#000000;stop-opacity:1"
         offset="1"
         id="stop594" /></linearGradient><linearGradient
       inkscape:collect="always"
       id="linearGradient516"><stop
         style="stop-color:#666666;stop-opacity:1"
         offset="0"
         id="stop512" /><stop
         style="stop-color:#999999;stop-opacity:1"
         offset="0.79794288"
         id="stop590" /><stop
         style="stop-color:#ffffff;stop-opacity:0.49803922;"
         offset="0.88236016"
         id="stop586" /><stop
         style="stop-color:#333333;stop-opacity:1"
         offset="1"
         id="stop514" /></linearGradient><radialGradient
       inkscape:collect="always"
       xlink:href="#linearGradient516"
       id="radialGradient584"
       cx="74.792038"
       cy="74.915886"
       fx="74.792038"
       fy="74.915886"
       r="65.998985"
       gradientTransform="matrix(1,0,0,0.96834261,0,2.3716412)"
       gradientUnits="userSpaceOnUse"
       spreadMethod="pad" /><radialGradient
       inkscape:collect="always"
       xlink:href="#linearGradient596"
       id="radialGradient598"
       cx="-73.497749"
       cy="46.980862"
       fx="-73.497749"
       fy="46.980862"
       r="46.651581"
       gradientTransform="matrix(0.94660178,-0.01909304,0.01872651,0.92915094,-4.8400374,1.9121389)"
       gradientUnits="userSpaceOnUse" /><radialGradient
       inkscape:collect="always"
       xlink:href="#linearGradient2939"
       id="radialGradient2941"
       cx="33.697506"
       cy="45.664665"
       fx="33.697506"
       fy="45.664665"
       r="41.506209"
       gradientTransform="matrix(0.20679809,1.3154344,-1.157908,0.18203353,79.604406,-10.578252)"
       gradientUnits="userSpaceOnUse" /></defs><g
     inkscape:label="Layer 1"
     inkscape:groupmode="layer"
     id="layer1"
     style="display:inline" /><g
     inkscape:groupmode="layer"
     id="layer2"
     inkscape:label="Layer 2"
     style="display:inline"><path
       sodipodi:type="star"
       style="fill:url(#radialGradient598);stroke-width:0.264583;fill-opacity:1"
       id="path232"
       inkscape:flatsided="false"
       sodipodi:sides="23"
       sodipodi:cx="-73.616219"
       sodipodi:cy="47.646053"
       sodipodi:r1="46.748329"
       sodipodi:r2="44.410912"
       sodipodi:arg1="0.87521795"
       sodipodi:arg2="1.0118089"
       inkscape:rounded="0.5"
       inkscape:randomized="0"
       d="m -43.658508,83.53396 c -2.550106,2.128721 -3.589145,0.0017 -6.40536,1.763333 -2.816216,1.761655 -1.358129,3.626567 -4.387994,4.98834 -3.029863,1.361772 -3.456503,-0.966724 -6.643574,-0.0302 -3.187072,0.936522 -2.286202,3.125665 -5.571113,3.619492 -3.28491,0.493826 -3.067507,-1.863428 -6.389064,-1.821497 -3.321558,0.04193 -3.044718,2.392947 -6.341048,1.982203 -3.29633,-0.410744 -2.451009,-2.62193 -5.660707,-3.477699 -3.209698,-0.855769 -3.57742,1.482755 -6.640697,0.197903 -3.063275,-1.284851 -1.65273,-3.185976 -4.51252,-4.875977 -2.85979,-1.690001 -3.844805,0.462594 -6.447835,-1.601074 -2.60303,-2.063667 -0.73188,-3.513733 -3.02966,-5.912626 -2.29779,-2.398893 -3.82703,-0.591876 -5.77677,-3.281307 -1.94973,-2.689431 0.24326,-3.580893 -1.3221,-6.510762 -1.56537,-2.929871 -3.52543,-1.602449 -4.67727,-4.718181 -1.15183,-3.115731 1.20035,-3.382474 0.48351,-6.626026 -0.71685,-3.243553 -2.96236,-2.494175 -3.23087,-5.805128 -0.26851,-3.310952 2.06842,-2.933191 2.25326,-6.249866 0.18483,-3.316676 -2.17959,-3.200921 -1.54486,-6.461537 0.63474,-3.260614 2.78308,-2.266368 3.85589,-5.410183 1.07282,-3.143816 -1.23516,-3.670268 0.25574,-6.638721 1.4909,-2.968453 3.29133,-1.431459 5.17255,-4.169252 1.88122,-2.737794 -0.19913,-3.867408 2.03736,-6.323543 2.2365,-2.456134 3.55549,-0.490385 6.1056,-2.619106 2.550103,-2.128722 0.85166,-3.7777207 3.667874,-5.5393763 2.816215,-1.7616549 3.555944,0.4870591 6.585808,-0.874713 3.029865,-1.3617726 1.839297,-3.4078569 5.026369,-4.3443795 3.187071,-0.9365221 3.292673,1.4283799 6.577583,0.9345535 3.284911,-0.4938267 2.69052,-2.78524802 6.012078,-2.82717989 3.321556,-0.0419318 2.785199,2.26376419 6.081528,2.67450829 3.296331,0.4107442 3.342199,-1.9560699 6.551898,-1.1003012 3.209697,0.8557683 2.071161,2.9312555 5.134435,4.216107 3.063277,1.2848521 3.746003,-0.9818191 6.605794,0.7081818 2.859789,1.6900001 1.203513,3.3813493 3.806544,5.4450163 2.603033,2.063668 3.871982,0.06525 6.169767,2.464142 2.297785,2.398893 0.246607,3.580664 2.19634,6.270094 1.949734,2.689432 3.710795,1.107478 5.276158,4.037348 1.565363,2.92987 -0.72859,3.514417 0.423242,6.630148 1.151833,3.115732 3.274395,2.067569 3.991241,5.311123 0.716845,3.243551 -1.64975,3.18752 -1.381245,6.498472 0.268505,3.310953 2.595147,2.87432 2.41031,6.190996 -0.184837,3.316675 -2.448556,2.624222 -3.083292,5.884836 -0.634736,3.260616 1.723431,3.467895 0.650619,6.611711 -1.072811,3.143815 -3.065763,1.866296 -4.556664,4.834749 -1.490902,2.968453 0.723894,3.804271 -1.157326,6.542065 -1.88122,2.737793 -3.455597,0.969956 -5.692091,3.42609 -2.236495,2.456134 -0.32933,3.858502 -2.879438,5.987225 z"
       inkscape:transform-center-x="-0.064778772"
       inkscape:transform-center-y="-0.28551999"
       transform="matrix(1.6084182,0,0,1.6084182,193.47253,-1.3660725)" /><ellipse
       style="display:none;fill:url(#radialGradient584);fill-opacity:1;stroke-width:0.636083"
       id="path450"
       cx="74.792038"
       cy="74.915886"
       rx="65.998985"
       ry="63.90963" /></g><g
     inkscape:groupmode="layer"
     id="layer3"
     inkscape:label="Layer 3"><path
       style="fill:none;stroke:url(#radialGradient2941);stroke-width:8;stroke-opacity:1;stroke-linecap:butt;marker-end:"
       id="path763"
       sodipodi:type="arc"
       sodipodi:cx="75.35437"
       sodipodi:cy="74.945404"
       sodipodi:rx="53"
       sodipodi:ry="53"
       sodipodi:start="2.3561945"
       sodipodi:end="5.1487213"
       sodipodi:arc-type="arc"
       d="M 37.87771,112.42206 A 53,53 0 0 1 31.939312,44.545853 53,53 0 0 1 97.753138,26.911091"
       sodipodi:open="true" /></g></svg>
